<svg xmlns="http://www.w3.org/2000/svg" width="54.585" height="54.585" viewBox="0 0 54.585 54.585">
  <g id="facebook" transform="translate(-613.92 -202.947)">
    <g id="Groupe_10" data-name="Groupe 10">
      <path id="Tracé_8" data-name="Tracé 8" d="M641.213,257.532a27.293,27.293,0,1,1,27.292-27.292A27.324,27.324,0,0,1,641.213,257.532Z" fill="#abca07"/>
    </g>
    <g id="Groupe_11" data-name="Groupe 11">
      <path id="Tracé_9" data-name="Tracé 9" d="M636.933,230.369v15.818a.412.412,0,0,0,.412.412h5.874a.412.412,0,0,0,.412-.412V230.111h4.259a.412.412,0,0,0,.41-.377l.41-4.844a.413.413,0,0,0-.411-.447h-4.668v-3.436a1.459,1.459,0,0,1,1.458-1.459h3.283a.412.412,0,0,0,.412-.412v-4.843a.412.412,0,0,0-.412-.412h-5.546a5.893,5.893,0,0,0-5.893,5.893v4.669H634a.412.412,0,0,0-.412.412V229.7a.411.411,0,0,0,.412.412h2.937Z"/>
    </g>
  </g>
</svg>
