<svg xmlns="http://www.w3.org/2000/svg" width="54.229" height="54.229" viewBox="0 0 54.229 54.229">
  <g id="insta" transform="translate(-696.003 -203.631)">
    <circle id="Ellipse_2" data-name="Ellipse 2" cx="23.75" cy="23.75" r="23.75" transform="translate(699.347 206.766)"/>
    <g id="Groupe_32" data-name="Groupe 32">
      <path id="Tracé_20" data-name="Tracé 20" d="M723.118,257.86a27.114,27.114,0,1,1,27.114-27.114A27.146,27.146,0,0,1,723.118,257.86Zm9.142-38.116a2.007,2.007,0,1,0,2.007,2.007A2.007,2.007,0,0,0,732.26,219.744Zm-8.92,2.573a8.428,8.428,0,1,0,8.428,8.429A8.438,8.438,0,0,0,723.34,222.317Zm0,13.828a5.4,5.4,0,1,1,5.4-5.4A5.405,5.405,0,0,1,723.34,236.145Zm17.006-12.4a10.28,10.28,0,0,0-10.28-10.28H716.5a10.281,10.281,0,0,0-10.28,10.28V237.31a10.281,10.281,0,0,0,10.28,10.28h13.568a10.28,10.28,0,0,0,10.28-10.28Zm-3.219,13.569a7.06,7.06,0,0,1-7.061,7.06H716.5a7.06,7.06,0,0,1-7.06-7.06V223.741a7.06,7.06,0,0,1,7.06-7.06h13.568a7.06,7.06,0,0,1,7.061,7.06Z" fill="#abca07"/>
    </g>
  </g>
</svg>
