<svg xmlns="http://www.w3.org/2000/svg" xmlns:xlink="http://www.w3.org/1999/xlink" width="119.112" height="107.576" viewBox="0 0 119.112 107.576">
  <defs>
    <linearGradient id="linear-gradient" x1="1" y1="0.149" x2="0.099" y2="0.854" gradientUnits="objectBoundingBox">
      <stop offset="0" stop-color="#abca07"/>
      <stop offset="1" stop-color="#566504"/>
    </linearGradient>
  </defs>
  <g id="logo" transform="translate(-197.089 -9.433)">
    <path id="Tracé_2" data-name="Tracé 2" d="M259.632,54.642c-.559-1.5.2-2.61,1.337-3.734Q274.595,37.383,288.158,23.8c.88-.877,1.734-1.919,3.2-1.676,1.914.318,2.3,2.367.613,4.131-3.187,3.337-6.5,6.559-9.744,9.84a25.328,25.328,0,0,0-1.9,2.091,1.506,1.506,0,0,0,.019,2.25,1.61,1.61,0,0,0,2.286.045c.886-.734,1.707-1.55,2.523-2.363q7.8-7.777,15.6-15.559a11.89,11.89,0,0,1,2.436-1.947,2,2,0,0,1,2.592.4,1.929,1.929,0,0,1,.05,2.6,15.558,15.558,0,0,1-1.671,1.872c-6.74,6.76-13.516,13.487-20.215,20.288a5.244,5.244,0,0,1-4.643,1.894c-3.711-.339-6.237,2.2-6.271,5.831a5.838,5.838,0,1,0,11.632-.737,4.574,4.574,0,0,1,1.6-4.4c4.045-3.965,7.991-8.031,12.032-12,1.3-1.273,2.824-3.334,4.7-1.351,1.922,2.026-.418,3.368-1.641,4.626-4.021,4.137-8.152,8.168-12.182,12.3-.952.975-2.744,2.1-1.3,3.622s2.637-.151,3.642-1.119c2.494-2.4,4.891-4.9,7.389-7.3,1.15-1.1,2.548-2.306,4.085-.8,1.631,1.6.19,2.839-.921,3.96-3.839,3.875-7.728,7.7-11.528,11.611a4.7,4.7,0,0,1-3.911,1.443c-3.417-.107-6.493,2.895-6.42,5.982a6.334,6.334,0,0,0,6.323,5.725c3.572-.244,5.942-3.246,5.314-7.051a3.631,3.631,0,0,1,1.079-3.647c2.5-2.393,4.9-4.892,7.364-7.322,1.179-1.162,2.621-2.228,4.1-.808,1.548,1.487.441,2.935-.829,3.993a10.449,10.449,0,0,0-4.13,8.682,8.644,8.644,0,0,1-4.626,7.448c-7.5,4.408-15.02,8.8-22.62,13.041a10.473,10.473,0,0,1-10.82-.232c-7.18-4.135-14.33-8.321-21.5-12.47a10.324,10.324,0,0,1-5.422-9.611q.02-12.432.009-24.865c-.009-4.255,1.656-7.759,5.447-9.589,9.525-4.595,17.36-11.249,24.376-19.006a11.8,11.8,0,0,1,1.387-1.278c.9-.717,1.912-1.021,2.856-.188a2.216,2.216,0,0,1,.229,3.132,12.752,12.752,0,0,1-1.654,1.888c-5.179,5.206-10.4,10.374-15.536,15.62a4.836,4.836,0,0,1-4.414,1.639,6.1,6.1,0,0,0-6.589,5.725,6.286,6.286,0,0,0,5.849,5.91c3.3.084,5.841-2.385,5.762-6.061a6.586,6.586,0,0,1,2.227-5.235c7.918-7.808,15.754-15.7,23.641-23.537.86-.855,1.6-2.048,3.128-1.754,1.82.351,2.387,2.3.941,3.91-2.032,2.259-4.253,4.349-6.4,6.5-4.736,4.759-9.488,9.5-14.205,14.281-.929.941-2.378,2.056-1.107,3.437,1.538,1.672,2.621-.111,3.587-1.06,4.491-4.41,8.919-8.884,13.384-13.32a18.344,18.344,0,0,1,2.357-2.07,1.917,1.917,0,0,1,2.6.112,2.019,2.019,0,0,1,.281,2.843,17.39,17.39,0,0,1-1.867,2.118q-10.991,11.041-22,22.066c-1.116,1.12-2.122,2.062-4.019,1.934a5.93,5.93,0,0,0-6.679,5.885,5.811,5.811,0,0,0,6.211,5.7C257.8,61.626,259.937,58.844,259.632,54.642Z" transform="translate(-13.83)" fill="url(#linear-gradient)"/>
    <path id="Tracé_3" data-name="Tracé 3" d="M281.207,161.007c0-1.441-.035-2.883.011-4.322.035-1.115.349-2.16,1.694-2.238s1.918.89,1.94,2.009c.074,3.977.06,7.957.017,11.936a1.873,1.873,0,0,1-1.349,1.924,2.06,2.06,0,0,1-2.425-1.014,39.2,39.2,0,0,0-4.141-5.934c0,1.556.03,3.113-.01,4.668-.028,1.076-.144,2.237-1.562,2.3-1.387.06-1.74-1-1.75-2.12q-.05-5.814,0-11.628a1.911,1.911,0,0,1,1.466-2.137,2.133,2.133,0,0,1,2.371,1.169c1.067,1.789,2.035,3.637,3.044,5.461Z" transform="translate(-28.334 -53.677)"/>
    <path id="Tracé_4" data-name="Tracé 4" d="M264.028,162.606c0,1.889.055,3.779-.021,5.664-.044,1.113-.452,2.157-1.839,2.058-1.235-.088-1.259-1.135-1.448-2.087-.339-1.71,1.053-4.59-2.272-4.484-3.059.1-1.554,2.85-1.972,4.444-.28,1.065-.444,2.148-1.8,2.174s-1.835-.979-1.851-2.1q-.083-5.978,0-11.958a1.68,1.68,0,0,1,1.724-1.857c1.174-.024,1.673.771,1.817,1.79.132.931.134,1.881.21,2.822a1.668,1.668,0,0,0,1.837,1.713c1.2.026,2.06-.367,2.217-1.685.049-.416.017-.843.082-1.255.193-1.239-.524-3.174,1.468-3.259,2.146-.091,1.809,1.906,1.889,3.3.091,1.569.021,3.147.021,4.722Z" transform="translate(-20.623 -53.703)"/>
    <path id="Tracé_5" data-name="Tracé 5" d="M349.424,162.486c0-1.15-.016-2.3.006-3.451a4.383,4.383,0,0,1,3.487-4.608,5.716,5.716,0,0,1,6.232,1.861c.838,1.026,1.371,2.346.229,3.385-1.285,1.169-2.259.255-3.026-.923-.538-.825-1.2-1.521-2.318-1.1-1.074.4-1.188,1.38-1.186,2.343,0,1.985.02,3.971.1,5.954a1.482,1.482,0,0,0,1.362,1.487,1.614,1.614,0,0,0,1.591-.8,1.2,1.2,0,0,0-.33-1.887c-.819-.528-1.729-1.064-1.2-2.2s1.716-1.032,2.755-1.046c1.2-.016,2.416.128,2.795,1.5a6.124,6.124,0,0,1-1.317,6.15c-1.726,1.818-4.031,1.637-6.178,1.075-2.237-.586-3.009-2.4-3-4.6C349.424,164.577,349.422,163.531,349.424,162.486Z" transform="translate(-56.406 -53.599)"/>
    <path id="Tracé_6" data-name="Tracé 6" d="M304.5,162.634c0,1.046.065,2.1-.012,3.137-.2,2.749-1.478,4.494-4.445,4.686-3.442.222-5.66-1.01-6.1-4a32.215,32.215,0,0,1-.131-7.5c.292-3.258,2.638-5.06,5.813-4.876,3.036.176,4.717,2.025,4.88,5.416.05,1.043.008,2.092.008,3.138Zm-3.378.3c0-.9.018-1.531,0-2.16-.047-1.375.026-3.033-1.832-3.11-2.023-.084-1.723,1.689-1.83,3a7.173,7.173,0,0,0,.005,1.884c.331,1.752-1.041,4.776,1.945,4.734C302.119,167.238,300.708,164.306,301.126,162.93Z" transform="translate(-35.76 -53.557)"/>
    <path id="Tracé_7" data-name="Tracé 7" d="M329.483,162.341a37.326,37.326,0,0,1,.205-4.06c.451-2.9,2.556-4,5.165-4.037,2.442-.031,4.584.83,5.173,3.594a23.4,23.4,0,0,1,.1,8.718c-.482,2.908-2.528,4.156-5.793,3.953-3.025-.188-4.512-1.63-4.753-4.722-.089-1.142-.014-2.3-.014-3.445Zm3.67-.148c.046,1.019.036,2.157.166,3.279.11.948.408,1.959,1.59,1.971,1.269.013,1.775-.991,1.938-2.059a13.675,13.675,0,0,0,.117-3.1c-.135-1.738.647-4.456-1.959-4.473S333.805,160.583,333.153,162.193Z" transform="translate(-49.024 -53.622)"/>
    <path id="Tracé_8" data-name="Tracé 8" d="M237.494,162.593c0,.732-.026,1.466.006,2.2.048,1.05.042,2.194,1.309,2.579,1.283.39,1.916-.4,2.361-1.474.48-1.154,1.361-1.7,2.487-1.008,1.082.661.962,1.841.539,2.823-.968,2.253-2.945,2.756-5.174,2.766-2.2.009-4.113-.71-4.66-2.928a19.277,19.277,0,0,1-.166-9.937,4.7,4.7,0,0,1,4.109-3.405,5.334,5.334,0,0,1,5.341,1.908c.892,1.107,1.412,2.6.105,3.652-1.2.968-2.075-.04-2.718-1.127a1.9,1.9,0,0,0-2.411-.933c-.953.326-1.076,1.207-1.106,2.062-.034.941-.008,1.883-.008,2.825Z" transform="translate(-13.525 -53.571)"/>
    <path id="Tracé_9" data-name="Tracé 9" d="M216.491,161.832v-1.887c0-6.127,1.892-7.572,8.077-6.164.943.215,1.979.448,1.948,1.653-.031,1.242-1.077,1.381-2.053,1.448-.522.036-1.048.011-1.571.043-1.234.077-2.666-.132-2.873,1.673-.191,1.664,1.04,1.791,2.213,2,.768.135,1.437.493,1.462,1.384.029,1.07-.732,1.5-1.634,1.52-1.356.031-2.265.375-2.106,1.977.176,1.776,1.494,1.65,2.766,1.834,1.366.2,3.781-.83,3.652,1.574-.1,1.936-2.358,1.2-3.693,1.222-6.19.124-6.191.082-6.186-6.07Q216.492,162.932,216.491,161.832Z" transform="translate(-7.184 -53.267)"/>
    <path id="Tracé_10" data-name="Tracé 10" d="M368.542,154.4c1.9.174,2.144,1.847,2.91,3.022.5.766.666,2.03,1.706,2.069,1.118.042,1.166-1.3,1.669-2.045.351-.518.593-1.108.911-1.65.577-.984,1.313-1.73,2.543-1.085,1.293.678.937,1.707.4,2.687-.451.827-.935,1.64-1.453,2.426-1.523,2.31-2.742,4.654-2.277,7.611.189,1.2.038,2.786-1.65,2.894-1.93.123-2.15-1.523-2.013-2.875.4-3.9-1.883-6.751-3.594-9.839C366.938,156.247,366.71,155.048,368.542,154.4Z" transform="translate(-62.966 -53.68)"/>
    <path id="Tracé_11" data-name="Tracé 11" d="M202.734,153.887c.73,0,1.467-.055,2.191.012,1.224.113,2.772-.028,3.091,1.529.331,1.616-1.156,1.72-2.254,1.957-1.468.317-1.259,1.465-1.272,2.477-.032,2.611,0,5.222-.038,7.832-.017,1.19-.169,2.481-1.751,2.436s-1.61-1.382-1.627-2.545c-.037-2.611-.033-5.222-.037-7.833,0-1.379-.26-2.535-2-2.543-.991-.005-2.015-.1-1.941-1.433.072-1.3,1.1-1.708,2.2-1.794,1.14-.089,2.293-.02,3.441-.02Z" transform="translate(0 -53.482)"/>
    <path id="Tracé_12" data-name="Tracé 12" d="M318.493,170.6c-4.645-.01-4.806-.158-4.82-4.735-.008-2.938-.016-5.877.051-8.813.027-1.169.207-2.473,1.758-2.525,1.575-.052,1.822,1.258,1.864,2.419.1,2.725.093,5.455.086,8.182,0,1.608.536,2.55,2.339,2.638,1.2.059,3.269-.569,3.064,1.552-.179,1.862-2.153,1.081-3.4,1.274A6.28,6.28,0,0,1,318.493,170.6Z" transform="translate(-43.168 -53.727)"/>
  </g>
</svg>
