<svg xmlns="http://www.w3.org/2000/svg" width="54.585" height="54.585" viewBox="0 0 54.585 54.585">
  <g id="twitter" transform="translate(-532.384 -202.947)">
    <g id="Groupe_24" data-name="Groupe 24">
      <path id="Tracé_14" data-name="Tracé 14" d="M559.676,257.532a27.293,27.293,0,1,1,27.293-27.292A27.323,27.323,0,0,1,559.676,257.532Z" fill="#abca07"/>
    </g>
    <g id="Groupe_30" data-name="Groupe 30">
      <g id="Groupe_25" data-name="Groupe 25">
        <path id="Tracé_15" data-name="Tracé 15" d="M575.362,220.279a13.05,13.05,0,0,1-3.213.918c.517-.087,1.281-1.024,1.586-1.4a5.922,5.922,0,0,0,1.07-1.948c.028-.056.049-.126-.007-.168a.18.18,0,0,0-.17.014,16.394,16.394,0,0,1-3.817,1.461.254.254,0,0,1-.263-.07,3.083,3.083,0,0,0-.334-.341,6.755,6.755,0,0,0-1.849-1.133,6.441,6.441,0,0,0-2.836-.457,6.778,6.778,0,0,0-2.69.76,6.946,6.946,0,0,0-2.171,1.773,6.685,6.685,0,0,0-1.3,2.6,7.025,7.025,0,0,0-.068,2.741c.02.153.007.174-.132.153-5.243-.78-9.588-2.656-13.116-6.676-.153-.174-.236-.174-.362.014-1.544,2.314-.795,6.031,1.134,7.858.257.243.521.487.806.709a6.662,6.662,0,0,1-2.531-.709c-.153-.1-.23-.041-.243.132a3.963,3.963,0,0,0,.041.752,6.726,6.726,0,0,0,4.145,5.361,3.894,3.894,0,0,0,.841.257,7.492,7.492,0,0,1-2.482.077c-.181-.035-.25.056-.181.23a6.982,6.982,0,0,0,5.215,4.367c.237.041.473.041.71.1-.014.021-.028.021-.042.042-.585.893-2.616,1.557-3.561,1.888a12.763,12.763,0,0,1-5.41.692c-.291-.043-.352-.04-.431,0s-.01.119.084.194c.368.244.744.46,1.126.668a17.873,17.873,0,0,0,3.616,1.447c6.5,1.794,13.819.476,18.7-4.372,3.832-3.808,5.175-9.058,5.175-14.314,0-.206.243-.32.388-.428a12.6,12.6,0,0,0,2.533-2.647.768.768,0,0,0,.156-.507v-.028C575.481,220.2,575.492,220.221,575.362,220.279Z"/>
      </g>
      <g id="Groupe_26" data-name="Groupe 26">
        <path id="Tracé_16" data-name="Tracé 16" d="M553.118,243.228Z"/>
      </g>
      <g id="Groupe_27" data-name="Groupe 27">
        <path id="Tracé_17" data-name="Tracé 17" d="M553.118,243.228c-.042,0-.525,0,0,0Z"/>
      </g>
      <g id="Groupe_28" data-name="Groupe 28">
        <path id="Tracé_18" data-name="Tracé 18" d="M554.189,243.256c0-.053.563,0,0,0C554.189,243.228,554.258,243.256,554.189,243.256Z"/>
      </g>
      <g id="Groupe_29" data-name="Groupe 29">
        <path id="Tracé_19" data-name="Tracé 19" d="M565.44,217.177a.114.114,0,0,1-.132,0Z"/>
      </g>
    </g>
  </g>
</svg>
