<svg xmlns="http://www.w3.org/2000/svg" width="54.585" height="54.586" viewBox="0 0 54.585 54.586">
  <g id="youtube" transform="translate(-695.825 -138.718)">
    <g id="Groupe_13" data-name="Groupe 13">
      <path id="Tracé_10" data-name="Tracé 10" d="M723.118,193.3a27.293,27.293,0,1,1,27.292-27.293A27.324,27.324,0,0,1,723.118,193.3Z" fill="#abca07"/>
    </g>
    <g id="Groupe_15" data-name="Groupe 15">
      <g id="Groupe_14" data-name="Groupe 14">
        <path id="Tracé_11" data-name="Tracé 11" d="M739.459,161.872a7.009,7.009,0,0,0-7.009-7.009H714.271a7.009,7.009,0,0,0-7.009,7.009v8.52a7.009,7.009,0,0,0,7.009,7.009H732.45a7.009,7.009,0,0,0,7.009-7.009Zm-11.469,4.689-7.25,3.976c-.315.171-.6-.057-.6-.416v-8.162c0-.363.292-.59.608-.411l7.3,4.186A.475.475,0,0,1,727.99,166.561Z"/>
      </g>
    </g>
  </g>
</svg>
